# xmcd CD database file
#
# Track frame offsets:
#	150
#	24352
#	41972
#
# Disc length: 878 seconds
#
# Revision: 0
# Processed by: cddbd v1.5.1PL0 Copyright (c) Steve Scherf et al.
# Submitted via: CDex 1.50
#
DISCID=1e036c03
DTITLE=黒沢 秀樹 - Believe（single)
DYEAR=1999
DGENRE=Pop
TTITLE0=Believe(single ver.)
TTITLE1=Believe II
TTITLE2=Interview
EXTD=YEAR: 1999
EXTT0=
EXTT1=
EXTT2=
PLAYORDER=
